<svg version="1.1" xmlns="http://www.w3.org/2000/svg" xmlns:xlink="http://www.w3.org/1999/xlink" x="0px" y="0px"
	 width="595.279px" height="595.28px" viewBox="0 123.305 595.279 595.28" enable-background="new 0 123.305 595.279 595.28"
	 xml:space="preserve">
	<path d="M305.529,492.107c-2.224-4.688-7.831-6.688-12.521-4.461c-7.629,3.621-15.628,6.613-23.774,8.893
		c-3.407,0.953-5.989,3.737-6.683,7.208l-9.943,49.713c-0.98,4.909-5.327,8.473-10.333,8.473h-27.124
		c-5.006,0-9.352-3.562-10.334-8.473l-9.942-49.713c-0.694-3.471-3.277-6.255-6.684-7.208
		c-11.508-3.221-22.613-7.822-33.009-13.678c-3.084-1.737-6.883-1.594-9.826,0.368l-42.188,28.125
		c-4.165,2.776-9.757,2.222-13.299-1.317L70.69,490.856c-3.54-3.54-4.093-9.132-1.317-13.298l28.125-42.188
		c1.963-2.945,2.106-6.742,0.368-9.827c-5.856-10.396-10.458-21.503-13.678-33.009c-0.953-3.408-3.737-5.99-7.208-6.683
		l-49.713-9.943c-4.909-0.981-8.473-5.327-8.473-10.333v-27.124c0-5.006,3.562-9.352,8.473-10.334l49.713-9.943
		c3.471-0.694,6.255-3.277,7.208-6.683c3.221-11.508,7.822-22.613,13.678-33.009c1.737-3.083,1.594-6.882-0.368-9.827
		l-28.123-42.184c-2.776-4.166-2.223-9.757,1.317-13.298l19.18-19.179c3.54-3.541,9.134-4.093,13.298-1.317l42.188,28.125
		c2.943,1.964,6.743,2.105,9.827,0.369c10.395-5.855,21.501-10.457,33.009-13.677c3.407-0.954,5.99-3.738,6.683-7.209
		l9.943-49.712c0.981-4.909,5.327-8.473,10.334-8.473h27.123c5.007,0,9.352,3.562,10.334,8.473l9.942,49.712
		c0.694,3.471,3.278,6.255,6.684,7.209c11.508,3.22,22.613,7.822,33.009,13.677c3.085,1.737,6.883,1.594,9.826-0.369
		l42.188-28.125c4.165-2.776,9.756-2.222,13.299,1.317l19.179,19.179c3.54,3.54,4.093,9.132,1.317,13.298L359.93,268.66
		c-1.963,2.945-2.106,6.742-0.368,9.827c5.855,10.395,10.457,21.501,13.678,33.009c0.953,3.408,3.737,5.99,7.208,6.683
		l49.713,9.943c4.909,0.981,8.473,5.327,8.473,10.333v27.124c0,5.007-3.562,9.352-8.473,10.334l-49.713,9.943
		c-3.471,0.694-6.255,3.278-7.208,6.686c-2.336,8.348-5.418,16.537-9.162,24.339c-2.246,4.68-0.271,10.294,4.408,12.539
		c4.68,2.247,10.295,0.271,12.539-4.408c3.379-7.042,6.279-14.363,8.652-21.831l44.171-8.833
		c13.659-2.735,23.577-14.833,23.577-28.769v-27.124c0-13.936-9.918-26.033-23.583-28.768l-44.17-8.834
		c-2.897-9.12-6.568-17.986-10.969-26.473l24.988-37.483c7.729-11.595,6.188-27.163-3.666-37.018l-19.179-19.179
		c-9.856-9.855-25.424-11.394-37.019-3.666l-37.482,24.988c-8.486-4.398-17.353-8.071-26.473-10.968l-8.834-44.169
		c-2.73-13.662-14.829-23.58-28.765-23.58h-27.124c-13.936,0-26.033,9.918-28.768,23.583l-8.834,44.169
		c-9.119,2.897-17.986,6.569-26.473,10.969l-37.48-24.988c-11.594-7.729-27.163-6.19-37.018,3.666L57.4,199.883
		c-9.854,9.854-11.396,25.421-3.666,37.018l24.987,37.482c-4.398,8.486-8.071,17.352-10.969,26.473l-44.17,8.834
		C9.917,312.423,0,324.521,0,338.457v27.124c0,13.936,9.917,26.033,23.583,28.768l44.169,8.833
		c2.896,9.119,6.569,17.985,10.969,26.473l-24.987,37.483c-7.729,11.595-6.189,27.163,3.666,37.018l19.179,19.179
		c9.854,9.855,25.423,11.395,37.018,3.666l37.483-24.987c8.486,4.398,17.352,8.071,26.473,10.969l8.834,44.171
		c2.731,13.661,14.83,23.58,28.766,23.58h27.124c13.936,0,26.033-9.917,28.768-23.583l8.834-44.17
		c7.242-2.301,14.351-5.099,21.192-8.348C305.759,502.404,307.756,496.798,305.529,492.107z"/>
	<path d="M310.125,404.245c1.372,0.704,2.837,1.038,4.281,1.038c3.414,0,6.707-1.866,8.371-5.112
		c7.581-14.783,11.588-31.434,11.588-48.151c0-58.257-47.395-105.654-105.653-105.654c-27.716,0-53.905,10.652-73.747,29.998
		c-3.718,3.623-3.793,9.575-0.17,13.291s9.573,3.793,13.29,0.17c16.312-15.901,37.841-24.659,60.625-24.659
		c47.892,0,86.855,38.963,86.855,86.856c0,13.945-3.202,27.26-9.516,39.574C303.683,396.211,305.507,401.875,310.125,404.245z"/>
	<path d="M140.732,311.801c-4.91-1.689-10.256,0.921-11.945,5.83c-3.799,11.043-5.725,22.614-5.725,34.388
		c0,58.258,47.396,105.654,105.653,105.654c22.406,0,43.812-6.925,61.908-20.028c4.204-3.045,5.145-8.923,2.102-13.127
		c-3.044-4.204-8.923-5.145-13.127-2.101c-14.868,10.765-32.463,16.456-50.884,16.456c-47.893,0-86.856-38.964-86.856-86.856
		c0-9.689,1.582-19.204,4.702-28.273C148.248,318.835,145.639,313.488,140.732,311.801z"/>
	<path d="M577.192,534.09l-27.18-5.436c-1.655-4.926-3.649-9.735-5.961-14.385l15.377-23.065
		c5.929-8.894,4.747-20.835-2.811-28.392l-12.604-12.604c-7.559-7.557-19.499-8.739-28.393-2.812l-23.064,15.378
		c-4.649-2.312-9.459-4.306-14.386-5.96l-5.436-27.18c-2.096-10.481-11.375-18.089-22.063-18.089h-17.824
		c-10.688,0-19.968,7.607-22.064,18.089l-5.435,27.18c-4.927,1.655-9.736,3.649-14.386,5.96l-23.065-15.378
		c-8.894-5.927-20.834-4.747-28.392,2.812l-12.604,12.604c-7.559,7.559-8.739,19.499-2.812,28.392l15.378,23.065
		c-3.179,6.392-5.754,13.087-7.68,19.971c-1.398,4.999,1.521,10.185,6.52,11.585c4.999,1.398,10.185-1.52,11.584-6.52
		c2.047-7.315,4.972-14.372,8.692-20.978c1.737-3.085,1.594-6.883-0.368-9.827l-18.483-27.724
		c-0.976-1.463-0.781-3.429,0.463-4.672l12.604-12.604c1.244-1.243,3.209-1.436,4.673-0.463l27.724,18.482
		c2.943,1.964,6.742,2.105,9.826,0.369c6.606-3.721,13.663-6.646,20.978-8.692c3.408-0.953,5.99-3.738,6.684-7.208l6.533-32.668
		c0.344-1.724,1.871-2.976,3.631-2.976h17.824c1.758,0,3.286,1.252,3.631,2.976l6.533,32.67c0.694,3.471,3.277,6.255,6.683,7.209
		c7.315,2.046,14.373,4.971,20.979,8.691c3.083,1.737,6.883,1.594,9.826-0.368l27.724-18.483c1.464-0.975,3.429-0.782,4.673,0.463
		l12.604,12.604c1.242,1.244,1.437,3.209,0.462,4.673l-18.482,27.724c-1.964,2.944-2.106,6.742-0.368,9.826
		c3.721,6.606,6.646,13.663,8.691,20.979c0.954,3.407,3.738,5.989,7.209,6.683l32.667,6.533c1.725,0.344,2.977,1.872,2.977,3.631
		v17.824c0,1.758-1.252,3.286-2.977,3.631l-32.67,6.533c-3.47,0.694-6.255,3.277-7.208,6.683
		c-2.046,7.315-4.972,14.373-8.692,20.979c-1.736,3.084-1.594,6.883,0.369,9.826l18.482,27.724
		c0.976,1.464,0.781,3.429-0.463,4.673l-12.603,12.604c-1.243,1.244-3.208,1.437-4.673,0.463l-27.724-18.483
		c-2.944-1.962-6.743-2.105-9.827-0.368c-6.606,3.721-13.662,6.646-20.978,8.692c-3.408,0.953-5.99,3.737-6.683,7.208
		l-6.533,32.667c-0.345,1.725-1.872,2.977-3.631,2.977h-17.825c-1.758,0-3.285-1.252-3.631-2.977l-6.533-32.669
		c-0.693-3.471-3.277-6.256-6.683-7.209c-7.315-2.046-14.373-4.972-20.978-8.691c-3.085-1.737-6.884-1.595-9.827,0.368
		l-27.724,18.482c-1.464,0.976-3.429,0.782-4.673-0.463l-12.603-12.603c-1.243-1.244-1.438-3.209-0.463-4.673l18.482-27.724
		c1.964-2.945,2.107-6.742,0.369-9.827c-3.721-6.605-6.646-13.662-8.692-20.978c-0.953-3.407-3.738-5.99-7.209-6.683
		l-32.667-6.533c-1.724-0.344-2.977-1.872-2.977-3.631v-17.825c0-1.758,1.253-3.285,2.977-3.631l2-0.399
		c5.09-1.019,8.393-5.971,7.372-11.061c-1.019-5.09-5.964-8.387-11.062-7.372l-1.999,0.399
		c-10.479,2.098-18.086,11.377-18.086,22.065v17.824c0,10.688,7.606,19.968,18.088,22.063l27.18,5.436
		c1.655,4.927,3.649,9.736,5.96,14.386l-15.378,23.064c-5.93,8.895-4.747,20.835,2.812,28.393l12.604,12.604
		c7.559,7.558,19.499,8.739,28.392,2.811l23.065-15.377c4.649,2.312,9.459,4.306,14.385,5.96l5.436,27.179
		c2.099,10.481,11.378,18.089,22.066,18.089h17.824c10.688,0,19.968-7.607,22.064-18.089l5.435-27.179
		c4.927-1.656,9.736-3.649,14.386-5.961l23.065,15.377c8.894,5.929,20.834,4.747,28.392-2.812l12.604-12.603
		c7.559-7.559,8.739-19.499,2.812-28.393l-15.378-23.064c2.312-4.649,4.306-9.46,5.96-14.386l27.18-5.436
		c10.479-2.096,18.087-11.375,18.087-22.063v-17.825C595.28,545.466,587.673,536.187,577.192,534.09z"/>
	<path d="M441.76,531.229c18.659,0,33.837,15.179,33.837,33.837c0,5.191,4.209,9.399,9.399,9.399s9.398-4.209,9.398-9.399
		c0-29.023-23.612-52.636-52.636-52.636s-52.636,23.612-52.636,52.636s23.612,52.636,52.636,52.636
		c11.756,0,22.876-3.791,32.158-10.962c4.107-3.175,4.864-9.077,1.691-13.187c-3.174-4.107-9.078-4.865-13.186-1.691
		c-5.962,4.605-13.107,7.041-20.664,7.041c-18.658,0-33.837-15.179-33.837-33.837C407.924,546.406,423.102,531.229,441.76,531.229
		z"/>
	<path d="M285.978,352.018c0-31.575-25.69-57.264-57.265-57.264c-31.575,0-57.265,25.69-57.265,57.264
		c0,31.576,25.689,57.264,57.265,57.264S285.978,383.592,285.978,352.018z M190.246,352.018c0-21.209,17.258-38.466,38.467-38.466
		s38.467,17.257,38.467,38.466c0,21.209-17.257,38.466-38.467,38.466C207.501,390.484,190.246,373.228,190.246,352.018z"/>
</svg>
